# xmcd
#
# Track frame offsets: 
#        150
#        19185
#        34947
#        50332
#        62340
#        86307
#        104437
#        119392
#        140715
#        164280
#        185405
#        195837
#
# Disc length: 2746 seconds
#
# Revision: 5
# Processed by: cddbd v1.5.2PL0 Copyright (c) Steve Scherf et al.
# Submitted via: ExactAudioCopyFreeDBPlugin 1.0
#
DISCID=980ab80c
DTITLE=Joe Cocker - With A Little Help From My Friends (Remastered)
DYEAR=1999
DGENRE=Rock
TTITLE0=Feeling Alright
TTITLE1=Bye Bye Blackbird
TTITLE2=Change in Louise
TTITLE3=Marjorine
TTITLE4=Just Like A Woman
TTITLE5=Do I Still Figure In Your Life
TTITLE6=Sandpaper Cadillac
TTITLE7=Don't Let Me Be Misunderstood
TTITLE8=With A Little Help From My Friends
TTITLE9=I Shall Be Released
TTITLE10=The New Age Of Lily (Bonus Track)
TTITLE11=Something's Coming On (Bonus Track)
EXTD=Personnel: Joe Cocker (vocals) - David Cohen, Tony Visconti, Jimmy
EXTD=Page, Henry McCullough, \nAlbert Lee (guitar) - Chris Stainton (p
EXTD=iano, organ, bass) - Tommy Eyre (piano, organ) - Artie Butler (pian
EXTD=o) - \nMatthew Fisher, Steve Winwood (organ) - Carol Kaye (bass) - P
EXTD=aul Humphries, Clem Cattini, Mike Kelly, \nB.J. Wilson, Kenny (dr
EXTD=ums) - Brenda Holloway, Merry Clayton, Madeline Bell, Sunny Highto
EXTD=wer, \nRosetta Hightower, Su Wheetman, Sunny Wheetman (background
EXTD=vocals).\n\nProducer: Denny Cordell.\n\nReissue producer: Bill L
EXTD=evenson.\n\nPrincipally recorded at Olympic and Trident Studios, 
EXTD=London, England in 1968.\n\nOriginally released on A&M Records (3
EXTD=109).\n\nIncludes liner notes by J.P. Bean.
EXTT0=
EXTT1=
EXTT2=
EXTT3=
EXTT4=
EXTT5=
EXTT6=
EXTT7=
EXTT8=
EXTT9=
EXTT10=
EXTT11=
PLAYORDER=
